<svg xmlns="http://www.w3.org/2000/svg" viewBox="0 0 800 450" width="800" height="450">
  <!-- Background -->
  <rect width="800" height="450" rx="8" fill="#191414"/>

  <!-- Window chrome -->
  <rect x="0" y="0" width="800" height="32" rx="8" fill="#232323"/>
  <rect x="0" y="16" width="800" height="16" fill="#232323"/>
  <circle cx="20" cy="16" r="6" fill="#FF5F57"/>
  <circle cx="40" cy="16" r="6" fill="#FEBC2E"/>
  <circle cx="60" cy="16" r="6" fill="#28C840"/>
  <text x="400" y="20" text-anchor="middle" font-family="system-ui, sans-serif" font-size="12" fill="#727272">brett-hardiman.github.io/personal-portfolio</text>

  <!-- Site nav bar -->
  <rect x="0" y="32" width="800" height="44" fill="#121212"/>
  <rect x="0" y="76" width="800" height="1" fill="#232323"/>
  <text x="24" y="60" font-family="system-ui, sans-serif" font-size="14" font-weight="700" fill="#FFFFFF">Brett Hardiman</text>

  <!-- Nav links -->
  <text x="468" y="60" font-family="system-ui, sans-serif" font-size="11" fill="#B3B3B3">About</text>
  <text x="514" y="60" font-family="system-ui, sans-serif" font-size="11" fill="#B3B3B3">Skills</text>
  <text x="558" y="60" font-family="system-ui, sans-serif" font-size="11" fill="#B3B3B3">Experience</text>
  <text x="628" y="60" font-family="system-ui, sans-serif" font-size="11" fill="#1DB954">Projects</text>
  <text x="682" y="60" font-family="system-ui, sans-serif" font-size="11" fill="#B3B3B3">Testimonials</text>
  <text x="758" y="60" font-family="system-ui, sans-serif" font-size="11" fill="#B3B3B3">Contact</text>

  <!-- Scroll progress bar -->
  <rect x="0" y="77" width="320" height="2" fill="#1DB954"/>

  <!-- Decorative blobs -->
  <circle cx="120" cy="180" r="110" fill="#1DB954" opacity="0.08"/>
  <circle cx="680" cy="320" r="140" fill="#1DB954" opacity="0.06"/>

  <!-- Dot grid pattern -->
  <g fill="#333" opacity="0.5">
    <circle cx="640" cy="120" r="1.5"/>
    <circle cx="660" cy="120" r="1.5"/>
    <circle cx="680" cy="120" r="1.5"/>
    <circle cx="700" cy="120" r="1.5"/>
    <circle cx="720" cy="120" r="1.5"/>
    <circle cx="640" cy="140" r="1.5"/>
    <circle cx="660" cy="140" r="1.5"/>
    <circle cx="680" cy="140" r="1.5"/>
    <circle cx="700" cy="140" r="1.5"/>
    <circle cx="720" cy="140" r="1.5"/>
    <circle cx="640" cy="160" r="1.5"/>
    <circle cx="660" cy="160" r="1.5"/>
    <circle cx="680" cy="160" r="1.5"/>
    <circle cx="700" cy="160" r="1.5"/>
    <circle cx="720" cy="160" r="1.5"/>
  </g>

  <!-- Hero content -->
  <text x="60" y="148" font-family="system-ui, sans-serif" font-size="13" fill="#1DB954">Hello, I'm</text>
  <text x="60" y="208" font-family="system-ui, sans-serif" font-size="52" font-weight="800" fill="#FFFFFF">Brett Hardiman</text>
  <text x="60" y="240" font-family="system-ui, sans-serif" font-size="16" fill="#B3B3B3">AI/ML Product Owner</text>
  <text x="216" y="240" font-family="system-ui, sans-serif" font-size="16" fill="#727272">|</text>
  <text x="228" y="240" font-family="system-ui, sans-serif" font-size="16" fill="#B3B3B3">AI Engineer</text>
  <text x="60" y="272" font-family="system-ui, sans-serif" font-size="13" fill="#727272">Using AI to work smarter, build faster, and never stop learning.</text>

  <!-- CTA buttons -->
  <rect x="60" y="294" width="140" height="40" rx="20" fill="#1DB954"/>
  <text x="130" y="319" text-anchor="middle" font-family="system-ui, sans-serif" font-size="12" font-weight="600" fill="#191414">View My Work</text>

  <rect x="212" y="294" width="170" height="40" rx="20" fill="transparent" stroke="#FFFFFF" stroke-width="1.5"/>
  <text x="297" y="319" text-anchor="middle" font-family="system-ui, sans-serif" font-size="12" font-weight="600" fill="#FFFFFF">Connect on LinkedIn</text>

  <!-- Next section preview (fading in) -->
  <rect x="0" y="370" width="800" height="1" fill="#232323"/>
  <text x="60" y="402" font-family="monospace" font-size="11" fill="#1DB954">01</text>
  <text x="60" y="428" font-family="system-ui, sans-serif" font-size="20" font-weight="700" fill="#FFFFFF" opacity="0.85">About Me</text>

  <!-- Scroll indicator on right -->
  <circle cx="752" cy="408" r="14" fill="transparent" stroke="#333" stroke-width="1"/>
  <polyline points="746,404 752,412 758,404" stroke="#1DB954" stroke-width="1.5" fill="none" stroke-linecap="round" stroke-linejoin="round"/>
</svg>
