<svg xmlns="http://www.w3.org/2000/svg" viewBox="0 0 800 450" width="800" height="450">
  <!-- Background -->
  <rect width="800" height="450" rx="8" fill="#191414"/>

  <!-- Window chrome -->
  <rect x="0" y="0" width="800" height="32" rx="8" fill="#232323"/>
  <rect x="0" y="16" width="800" height="16" fill="#232323"/>
  <circle cx="20" cy="16" r="6" fill="#FF5F57"/>
  <circle cx="40" cy="16" r="6" fill="#FEBC2E"/>
  <circle cx="60" cy="16" r="6" fill="#28C840"/>
  <text x="400" y="20" text-anchor="middle" font-family="monospace" font-size="11" fill="#727272">claude-code — personal-portfolio</text>

  <!-- Terminal content area -->
  <rect x="16" y="44" width="768" height="394" rx="4" fill="#121212"/>

  <!-- Terminal header line -->
  <text x="28" y="68" font-family="monospace" font-size="12" fill="#1DB954">$</text>
  <text x="44" y="68" font-family="monospace" font-size="12" fill="#FFFFFF"> claude --team project-manager</text>

  <!-- Agent pipeline visualization -->
  <text x="28" y="100" font-family="monospace" font-size="11" fill="#727272">Spawning 8-agent pipeline...</text>

  <!-- Agent boxes row 1 -->
  <!-- Solution Architect -->
  <rect x="40" y="118" width="150" height="52" rx="6" fill="#232323" stroke="#1DB954" stroke-width="1.5"/>
  <text x="115" y="140" text-anchor="middle" font-family="monospace" font-size="9" fill="#1DB954">01</text>
  <text x="115" y="158" text-anchor="middle" font-family="system-ui, sans-serif" font-size="11" font-weight="600" fill="#FFFFFF">Solution Architect</text>

  <!-- Arrow -->
  <line x1="190" y1="144" x2="220" y2="144" stroke="#333" stroke-width="1.5"/>
  <polygon points="218,140 226,144 218,148" fill="#333"/>

  <!-- Requirements Agent -->
  <rect x="228" y="118" width="150" height="52" rx="6" fill="#232323" stroke="#1DB954" stroke-width="1.5"/>
  <text x="303" y="140" text-anchor="middle" font-family="monospace" font-size="9" fill="#1DB954">02</text>
  <text x="303" y="158" text-anchor="middle" font-family="system-ui, sans-serif" font-size="11" font-weight="600" fill="#FFFFFF">Requirements Agent</text>

  <!-- Arrow -->
  <line x1="378" y1="144" x2="408" y2="144" stroke="#333" stroke-width="1.5"/>
  <polygon points="406,140 414,144 406,148" fill="#333"/>

  <!-- Project Manager -->
  <rect x="416" y="118" width="150" height="52" rx="6" fill="#232323" stroke="#1DB954" stroke-width="1.5"/>
  <text x="491" y="140" text-anchor="middle" font-family="monospace" font-size="9" fill="#1DB954">03</text>
  <text x="491" y="158" text-anchor="middle" font-family="system-ui, sans-serif" font-size="11" font-weight="600" fill="#FFFFFF">Project Manager</text>

  <!-- Arrow -->
  <line x1="566" y1="144" x2="596" y2="144" stroke="#333" stroke-width="1.5"/>
  <polygon points="594,140 602,144 594,148" fill="#333"/>

  <!-- Coding Agent -->
  <rect x="604" y="118" width="150" height="52" rx="6" fill="#232323" stroke="#1DB954" stroke-width="1.5"/>
  <text x="679" y="140" text-anchor="middle" font-family="monospace" font-size="9" fill="#1DB954">04</text>
  <text x="679" y="158" text-anchor="middle" font-family="system-ui, sans-serif" font-size="11" font-weight="600" fill="#FFFFFF">Coding Agent</text>

  <!-- Agent boxes row 2 -->
  <!-- Arrow down from Coding Agent -->
  <line x1="679" y1="170" x2="679" y2="198" stroke="#333" stroke-width="1.5"/>
  <polygon points="675,196 679,204 683,196" fill="#333"/>

  <!-- Code Review -->
  <rect x="604" y="206" width="150" height="52" rx="6" fill="#232323" stroke="#E07C3E" stroke-width="1.5"/>
  <text x="679" y="228" text-anchor="middle" font-family="monospace" font-size="9" fill="#E07C3E">05</text>
  <text x="679" y="246" text-anchor="middle" font-family="system-ui, sans-serif" font-size="11" font-weight="600" fill="#FFFFFF">Code Review</text>

  <!-- Arrow left -->
  <line x1="604" y1="232" x2="574" y2="232" stroke="#333" stroke-width="1.5"/>
  <polygon points="576,228 568,232 576,236" fill="#333"/>

  <!-- Security Review -->
  <rect x="416" y="206" width="150" height="52" rx="6" fill="#232323" stroke="#E07C3E" stroke-width="1.5"/>
  <text x="491" y="228" text-anchor="middle" font-family="monospace" font-size="9" fill="#E07C3E">06</text>
  <text x="491" y="246" text-anchor="middle" font-family="system-ui, sans-serif" font-size="11" font-weight="600" fill="#FFFFFF">Security Review</text>

  <!-- Arrow left -->
  <line x1="416" y1="232" x2="386" y2="232" stroke="#333" stroke-width="1.5"/>
  <polygon points="388,228 380,232 388,236" fill="#333"/>

  <!-- CI/CD Agent -->
  <rect x="228" y="206" width="150" height="52" rx="6" fill="#232323" stroke="#D4A843" stroke-width="1.5"/>
  <text x="303" y="228" text-anchor="middle" font-family="monospace" font-size="9" fill="#D4A843">07</text>
  <text x="303" y="246" text-anchor="middle" font-family="system-ui, sans-serif" font-size="11" font-weight="600" fill="#FFFFFF">CI/CD Integration</text>

  <!-- Arrow left -->
  <line x1="228" y1="232" x2="198" y2="232" stroke="#333" stroke-width="1.5"/>
  <polygon points="200,228 192,232 200,236" fill="#333"/>

  <!-- Summary Agent -->
  <rect x="40" y="206" width="150" height="52" rx="6" fill="#232323" stroke="#D4A843" stroke-width="1.5"/>
  <text x="115" y="228" text-anchor="middle" font-family="monospace" font-size="9" fill="#D4A843">08</text>
  <text x="115" y="246" text-anchor="middle" font-family="system-ui, sans-serif" font-size="11" font-weight="600" fill="#FFFFFF">Project Summary</text>

  <!-- Status output -->
  <rect x="28" y="280" width="744" height="1" fill="#333"/>

  <text x="28" y="304" font-family="monospace" font-size="11" fill="#1DB954">Phase 1</text>
  <text x="100" y="304" font-family="monospace" font-size="11" fill="#727272">Foundation &amp; Layout</text>
  <text x="680" y="304" font-family="monospace" font-size="11" fill="#1DB954">DONE</text>
  <rect x="340" y="296" width="320" height="12" rx="6" fill="#232323"/>
  <rect x="340" y="296" width="320" height="12" rx="6" fill="#1DB954"/>

  <text x="28" y="326" font-family="monospace" font-size="11" fill="#1DB954">Phase 2</text>
  <text x="100" y="326" font-family="monospace" font-size="11" fill="#727272">Content Sections</text>
  <text x="680" y="326" font-family="monospace" font-size="11" fill="#1DB954">DONE</text>
  <rect x="340" y="318" width="320" height="12" rx="6" fill="#232323"/>
  <rect x="340" y="318" width="320" height="12" rx="6" fill="#1DB954"/>

  <text x="28" y="348" font-family="monospace" font-size="11" fill="#1DB954">Phase 3</text>
  <text x="100" y="348" font-family="monospace" font-size="11" fill="#727272">Animations &amp; Interactivity</text>
  <text x="680" y="348" font-family="monospace" font-size="11" fill="#1DB954">DONE</text>
  <rect x="340" y="340" width="320" height="12" rx="6" fill="#232323"/>
  <rect x="340" y="340" width="320" height="12" rx="6" fill="#1DB954"/>

  <text x="28" y="370" font-family="monospace" font-size="11" fill="#1DB954">Phase 4</text>
  <text x="100" y="370" font-family="monospace" font-size="11" fill="#727272">Polish, SEO &amp; Nice-to-Haves</text>
  <text x="680" y="370" font-family="monospace" font-size="11" fill="#1DB954">DONE</text>
  <rect x="340" y="362" width="320" height="12" rx="6" fill="#232323"/>
  <rect x="340" y="362" width="320" height="12" rx="6" fill="#1DB954"/>

  <!-- Final status -->
  <text x="28" y="410" font-family="monospace" font-size="12" fill="#1DB954">&#10003; All 26 tasks complete. Site ready for deployment.</text>
  <text x="28" y="428" font-family="monospace" font-size="11" fill="#727272">brett-hardiman.github.io/personal-portfolio</text>
</svg>